<?xml version="1.0" encoding="iso-8859-1"?>
<!-- Generator: Adobe Illustrator 19.0.0, SVG Export Plug-In . SVG Version: 6.00 Build 0)  -->
<svg version="1.1" id="Capa_1" xmlns="http://www.w3.org/2000/svg" xmlns:xlink="http://www.w3.org/1999/xlink" x="0px" y="0px"
	 viewBox="0 0 512 512" style="enable-background:new 0 0 512 512;" xml:space="preserve">
<path style="fill:#555160;" d="M35.31,406.069v35.31c0,9.754,7.901,17.655,17.655,17.655h35.31c9.754,0,17.655-7.901,17.655-17.655
	v-35.31H35.31z"/>
<g>
	<path style="fill:#FFBC05;" d="M52.966,176.552L5.173,224.344C1.863,227.655,0,232.148,0,236.826v133.932
		c0,19.5,15.81,35.31,35.31,35.31H476.69c19.5,0,35.31-15.81,35.31-35.31V236.826c0-4.679-1.863-9.172-5.173-12.482l-47.793-47.793
		L402.123,62.729c-2.993-5.985-9.101-9.763-15.793-9.763H117.575c-7.062,0-13.444,4.211-16.225,10.699L52.966,176.552z"/>
	<path style="fill:#FFBC05;" d="M0,150.069L0,150.069c0,9.754,7.901,17.655,17.655,17.655h35.31v-17.655
		c0-9.754-7.901-17.655-17.655-17.655H17.655C7.901,132.414,0,140.314,0,150.069z"/>
	<path style="fill:#FFBC05;" d="M459.034,150.069v17.655h35.31c9.754,0,17.655-7.901,17.655-17.655l0,0
		c0-9.754-7.901-17.655-17.655-17.655H476.69C466.935,132.414,459.034,140.314,459.034,150.069z"/>
</g>
<path style="fill:#E38100;" d="M211.862,406.069H476.69c19.5,0,35.31-15.81,35.31-35.31v-97.262
	C435.138,358.047,326.126,406.193,211.862,406.069z"/>
<g>
	<polygon style="fill:#2B2733;" points="344.276,247.172 370.759,273.655 335.448,370.759 176.552,370.759 141.241,273.655 
		167.724,247.172 	"/>
	<polygon style="fill:#2B2733;" points="141.241,370.759 123.586,326.621 35.31,326.621 35.31,370.759 	"/>
	<polygon style="fill:#2B2733;" points="370.759,370.759 388.414,326.621 476.69,326.621 476.69,370.759 	"/>
</g>
<path style="fill:#EDEDEE;" d="M35.31,273.655v-26.483h37.888c14.442,0,27.418,8.792,32.786,22.193l8.775,21.945H52.966
	C43.211,291.31,35.31,283.41,35.31,273.655z"/>
<g>
	
		<rect x="180.959" y="245.776" transform="matrix(-0.9778 0.2095 -0.2095 -0.9778 440.0906 571.3271)" style="fill:#555160;" width="17.655" height="126.392"/>
	
		<rect x="216.301" y="247.014" transform="matrix(-0.9975 0.0713 -0.0713 -0.9975 471.706 601.136)" style="fill:#555160;" width="17.647" height="123.945"/>
	<rect x="247.172" y="247.172" style="fill:#555160;" width="17.655" height="123.586"/>
	
		<rect x="224.748" y="300.171" transform="matrix(-0.071 0.9975 -0.9975 -0.071 615.2392 44.9765)" style="fill:#555160;" width="123.854" height="17.638"/>
	
		<rect x="259.013" y="300.181" transform="matrix(-0.21 0.9777 -0.9777 -0.21 691.9921 58.8764)" style="fill:#555160;" width="126.393" height="17.655"/>
	<path style="fill:#555160;" d="M341.628,379.586H170.372l-39.345-108.2l33.042-33.042H347.93l33.042,33.042L341.628,379.586z
		 M182.731,361.931h146.538l31.276-86.007L340.621,256H171.379l-19.924,19.924L182.731,361.931z"/>
</g>
<polygon style="fill:#23AEC8;" points="132.414,88.276 379.586,88.276 414.897,176.552 97.103,176.552 "/>
<path style="fill:#1967A3;" d="M349.175,88.276c-39.53,40.342-88.161,70.612-141.806,88.276h207.528l-35.31-88.276H349.175z"/>
<path style="fill:#EDEDEE;" d="M476.69,273.655v-26.483h-37.888c-14.442,0-27.418,8.792-32.786,22.193l-8.775,21.945h61.793
	C468.789,291.31,476.69,283.41,476.69,273.655z"/>
<g>
	<path style="fill:#E38100;" d="M506.792,137.551c-8.766,18.423-27.348,30.164-47.757,30.173h35.31
		c9.754,0,17.655-7.91,17.655-17.655C511.991,145.364,510.12,140.862,506.792,137.551z"/>
	<path style="fill:#E38100;" d="M47.757,137.551c-7.036,14.76-20.506,25.441-36.476,28.937c2.03,0.803,4.193,1.227,6.374,1.236
		h35.31v-17.655C52.966,145.373,51.094,140.862,47.757,137.551z"/>
</g>
<path style="fill:#3B3944;" d="M102.524,451.725c2.207-3.001,3.399-6.621,3.407-10.346v-35.31H35.31v9.269
	C61.758,417.739,86.051,430.892,102.524,451.725z"/>
<path style="fill:#555160;" d="M406.069,406.069v35.31c0,9.754,7.901,17.655,17.655,17.655h35.31
	c9.754,0,17.655-7.901,17.655-17.655v-35.31H406.069z"/>
<path style="fill:#3B3944;" d="M473.282,451.725c2.207-3.001,3.399-6.621,3.407-10.346v-35.31h-70.621v9.269
	C432.516,417.739,456.81,430.892,473.282,451.725z"/>
<g>
</g>
<g>
</g>
<g>
</g>
<g>
</g>
<g>
</g>
<g>
</g>
<g>
</g>
<g>
</g>
<g>
</g>
<g>
</g>
<g>
</g>
<g>
</g>
<g>
</g>
<g>
</g>
<g>
</g>
</svg>
